<svg width="1380" height="210" viewBox="0 0 1380 210" fill="none" xmlns="http://www.w3.org/2000/svg">
<g clip-path="url(#clip0_1832_23309)">
<rect width="1379" height="210" transform="translate(0.5)" fill="#C82B00"/>
<path d="M388.367 153.579C402.248 153.579 413.948 144.557 413.948 128.99C413.948 113.919 402.843 105.292 391.242 105.292C384.5 105.292 380.038 108.069 379.443 109.06L381.624 93.7908H407.007V82.19H371.213L366.553 117.686L376.964 122.247C378.253 120.165 381.922 116.298 388.267 116.298C395.01 116.298 400.86 121.058 400.86 129.089C400.86 137.814 394.217 141.681 387.97 141.681C381.029 141.681 376.369 136.823 375.279 133.452L365.066 139.103C368.338 147.432 376.766 153.579 388.367 153.579ZM457.584 153.579C476.919 153.579 493.477 139.004 493.477 117.389C493.477 95.7738 476.919 81.1985 457.584 81.1985C438.15 81.1985 421.691 95.7738 421.691 117.389C421.691 139.004 438.15 153.579 457.584 153.579ZM435.275 117.389C435.275 103.21 445.289 93.5925 457.584 93.5925C469.78 93.5925 479.893 103.21 479.893 117.389C479.893 131.568 469.78 141.185 457.584 141.185C445.289 141.185 435.275 131.568 435.275 117.389ZM516.001 152.588L557.446 88.2382L547.432 81.9917L505.887 146.242L516.001 152.588ZM501.227 93.8899C501.227 100.731 506.681 106.086 513.522 106.086C520.363 106.086 525.817 100.731 525.817 93.8899C525.817 87.0484 520.363 81.6942 513.522 81.6942C506.681 81.6942 501.227 87.0484 501.227 93.8899ZM509.953 93.8899C509.953 91.8077 511.44 90.2213 513.522 90.2213C515.604 90.2213 517.091 91.8077 517.091 93.8899C517.091 95.9721 515.604 97.5585 513.522 97.5585C511.44 97.5585 509.953 95.9721 509.953 93.8899ZM538.905 140.888C538.905 147.729 544.358 153.084 551.2 153.084C558.041 153.084 563.495 147.729 563.495 140.888C563.495 134.046 558.041 128.692 551.2 128.692C544.358 128.692 538.905 134.046 538.905 140.888ZM547.531 140.888C547.531 138.806 549.118 137.219 551.2 137.219C553.282 137.219 554.868 138.806 554.868 140.888C554.868 142.97 553.282 144.557 551.2 144.557C549.118 144.557 547.531 142.97 547.531 140.888ZM628.171 153.579C647.803 153.579 664.461 139.004 664.461 117.389C664.461 95.7738 647.803 81.1985 628.171 81.1985C608.539 81.1985 591.981 95.7738 591.981 117.389C591.981 139.004 608.539 153.579 628.171 153.579ZM605.862 117.389C605.862 103.21 616.174 94.0882 628.171 94.0882C640.268 94.0882 650.48 103.21 650.48 117.389C650.48 131.568 640.268 140.69 628.171 140.69C616.174 140.69 605.862 131.568 605.862 117.389ZM673.684 152.588H687.268V123.041H711.461V111.44H687.268V94.584H713.246V82.19H673.684V152.588ZM722.056 152.588H735.64V123.041H759.833V111.44H735.64V94.584H761.617V82.19H722.056V152.588ZM813.415 153.579C825.214 153.579 837.707 146.639 837.707 132.361C837.707 122.347 831.56 116.794 819.265 111.836L814.506 109.953C806.772 106.978 804.69 104.103 804.69 100.434C804.69 95.7738 808.457 93.295 813.514 93.295C818.67 93.295 822.537 96.0712 825.511 101.723L835.625 96.0712C832.452 88.6349 825.115 81.1985 813.018 81.1985C801.12 81.1985 791.304 88.5357 791.304 100.335C791.304 111.043 799.236 116.397 808.854 120.264L813.316 121.95C820.455 124.825 823.528 127.106 823.528 132.262C823.528 138.409 818.769 141.285 813.217 141.285C806.078 141.285 801.616 136.426 799.633 130.973L788.627 136.03C791.106 146.341 801.12 153.579 813.415 153.579ZM865.872 82.19L838.803 152.588H853.478L858.138 139.896H888.082L892.742 152.588H907.416L880.249 82.19H865.872ZM862.699 127.403L873.11 99.145L883.521 127.403H862.699ZM913.799 152.588H954.848V140.095H927.382V82.19H913.799V152.588ZM963.138 152.588H1003.89V140.095H976.722V123.338H998.833V111.043H976.722V94.6831H1003V82.19H963.138V152.588Z" fill="white"/>
<path d="M379.562 62.2495C383.629 62.2495 386.877 59.6295 386.877 54.7715V42.5993H383.138V54.7715C383.138 57.8009 381.254 58.7288 379.562 58.7288C377.843 58.7288 375.987 57.8009 375.987 54.7715V42.5993H372.248V54.7715C372.248 59.6295 375.496 62.2495 379.562 62.2495ZM389.694 67.162H393.351V60.0661H393.433C393.787 60.8576 395.425 62.2495 397.963 62.2495C401.265 62.2495 404.786 59.7932 404.786 54.8807C404.786 49.9681 401.265 47.5119 397.963 47.5119C395.425 47.5119 393.787 48.9037 393.433 49.6952H393.351V47.7848H389.694V67.162ZM393.269 54.8807C393.269 52.2061 395.179 50.7869 397.226 50.7869C399.273 50.7869 401.183 52.2334 401.183 54.8807C401.183 57.528 399.273 58.9745 397.226 58.9745C395.179 58.9745 393.269 57.5553 393.269 54.8807ZM418.13 62.1403C419.031 62.1403 420.068 61.9766 420.614 61.4853V58.6742C420.095 58.838 419.604 58.8926 419.276 58.8926C418.075 58.8926 417.666 58.183 417.666 57.4461V50.705H420.586V47.7848H417.666V44.155H413.982V47.7848H411.962V50.705H413.982V58.0465C413.982 60.9668 415.728 62.1403 418.13 62.1403ZM429.556 62.2495C433.241 62.2495 437.034 59.684 437.034 54.8807C437.034 50.0773 433.241 47.5119 429.556 47.5119C425.844 47.5119 422.078 50.0773 422.078 54.8807C422.078 59.684 425.844 62.2495 429.556 62.2495ZM425.681 54.8807C425.681 52.3425 427.509 50.8142 429.556 50.8142C431.603 50.8142 433.404 52.3425 433.404 54.8807C433.404 57.4188 431.603 58.9472 429.556 58.9472C427.509 58.9472 425.681 57.4188 425.681 54.8807Z" fill="#CCECFF"/>
<path d="M1036.95 157.5L345.945 157.5" stroke="white" stroke-opacity="0.7" stroke-width="1.28359" stroke-dasharray="4.48 4.48"/>
<path d="M361.988 -188L361.988 503" stroke="white" stroke-opacity="0.7" stroke-width="1.28359" stroke-dasharray="4.48 4.48"/>
<path d="M1008.6 -188L1008.6 503" stroke="white" stroke-opacity="0.7" stroke-width="1.28359" stroke-dasharray="4.48 4.48"/>
<path d="M1036.95 78.3457L345.945 78.3457" stroke="white" stroke-opacity="0.7" stroke-width="1.28359" stroke-dasharray="4.48 4.48"/>
<path d="M1717.25 157.5L1026.25 157.5" stroke="white" stroke-opacity="0.7" stroke-width="1.28359" stroke-dasharray="4.48 4.48"/>
<path d="M1717.25 78.3457L1026.25 78.3457" stroke="white" stroke-opacity="0.7" stroke-width="1.28359" stroke-dasharray="4.48 4.48"/>
<path d="M354.5 157.5L-336.5 157.5" stroke="white" stroke-opacity="0.7" stroke-width="1.28359" stroke-dasharray="4.48 4.48"/>
<path d="M354.5 78.3457L-336.5 78.3457" stroke="white" stroke-opacity="0.7" stroke-width="1.28359" stroke-dasharray="4.48 4.48"/>
</g>
<defs>
<clipPath id="clip0_1832_23309">
<rect width="1379" height="210" fill="white" transform="translate(0.5)"/>
</clipPath>
</defs>
</svg>
